<mxfile host="app.diagrams.net" agent="Mozilla/5.0 (Windows NT 10.0; Win64; x64) AppleWebKit/537.36 (KHTML, like Gecko) Chrome/129.0.0.0 Safari/537.36" version="24.7.17">
  <diagram name="Trang-1" id="9hOZMOrgnlAqW55MWDyS">
    <mxGraphModel dx="794" dy="859" grid="1" gridSize="10" guides="1" tooltips="1" connect="1" arrows="1" fold="1" page="0" pageScale="1" pageWidth="827" pageHeight="1169" math="0" shadow="0">
      <root>
        <mxCell id="0" />
        <mxCell id="1" parent="0" />
        <mxCell id="Jsi_0MGGv667d9zRB-nn-3" value="Khách hàng" style="shape=umlActor;verticalLabelPosition=bottom;verticalAlign=top;html=1;" vertex="1" parent="1">
          <mxGeometry x="80" y="-20" width="30" height="60" as="geometry" />
        </mxCell>
        <mxCell id="Jsi_0MGGv667d9zRB-nn-4" value="Nhân viên" style="shape=umlActor;verticalLabelPosition=bottom;verticalAlign=top;html=1;" vertex="1" parent="1">
          <mxGeometry x="80" y="220" width="30" height="60" as="geometry" />
        </mxCell>
        <mxCell id="Jsi_0MGGv667d9zRB-nn-5" value="Ban quản lý" style="shape=umlActor;verticalLabelPosition=bottom;verticalAlign=top;html=1;" vertex="1" parent="1">
          <mxGeometry x="70" y="320" width="30" height="60" as="geometry" />
        </mxCell>
        <mxCell id="Jsi_0MGGv667d9zRB-nn-6" value="Nhà cung cấp" style="shape=umlActor;verticalLabelPosition=bottom;verticalAlign=top;html=1;" vertex="1" parent="1">
          <mxGeometry x="180" y="350" width="30" height="60" as="geometry" />
        </mxCell>
        <mxCell id="Jsi_0MGGv667d9zRB-nn-7" value="&lt;span style=&quot;font-size: 12px;&quot; id=&quot;docs-internal-guid-6e65e3b9-7fff-7d46-da7b-84a1f44683c8&quot;&gt;&lt;span style=&quot;font-size: 12px; font-family: Arial, sans-serif; background-color: transparent; font-variant-numeric: normal; font-variant-east-asian: normal; font-variant-alternates: normal; font-variant-position: normal; vertical-align: baseline; white-space-collapse: preserve;&quot;&gt;Đăng ký/ đăng nhập &lt;/span&gt;&lt;/span&gt;" style="ellipse;whiteSpace=wrap;html=1;fontSize=12;" vertex="1" parent="1">
          <mxGeometry x="570" y="190" width="140" height="50" as="geometry" />
        </mxCell>
        <mxCell id="Jsi_0MGGv667d9zRB-nn-10" value="Đánh giá chất lượng sản phẩm" style="ellipse;whiteSpace=wrap;html=1;" vertex="1" parent="1">
          <mxGeometry x="320" y="-120" width="140" height="40" as="geometry" />
        </mxCell>
        <mxCell id="Jsi_0MGGv667d9zRB-nn-11" value="Gửi phản hồi" style="ellipse;whiteSpace=wrap;html=1;" vertex="1" parent="1">
          <mxGeometry x="320" y="-60" width="140" height="40" as="geometry" />
        </mxCell>
        <mxCell id="Jsi_0MGGv667d9zRB-nn-12" value="Chăm sóc khách hàng" style="ellipse;whiteSpace=wrap;html=1;" vertex="1" parent="1">
          <mxGeometry x="320" y="180" width="140" height="40" as="geometry" />
        </mxCell>
        <mxCell id="Jsi_0MGGv667d9zRB-nn-13" value="Gửi phản hồi" style="ellipse;whiteSpace=wrap;html=1;" vertex="1" parent="1">
          <mxGeometry x="320" width="140" height="40" as="geometry" />
        </mxCell>
        <mxCell id="Jsi_0MGGv667d9zRB-nn-14" value="Thanh toán" style="ellipse;whiteSpace=wrap;html=1;" vertex="1" parent="1">
          <mxGeometry x="320" y="120" width="140" height="40" as="geometry" />
        </mxCell>
        <mxCell id="Jsi_0MGGv667d9zRB-nn-15" value="Mua hàng" style="ellipse;whiteSpace=wrap;html=1;" vertex="1" parent="1">
          <mxGeometry x="320" y="60" width="140" height="40" as="geometry" />
        </mxCell>
        <mxCell id="Jsi_0MGGv667d9zRB-nn-16" value="Quản lý đơn hàng" style="ellipse;whiteSpace=wrap;html=1;" vertex="1" parent="1">
          <mxGeometry x="330" y="240" width="140" height="40" as="geometry" />
        </mxCell>
        <mxCell id="Jsi_0MGGv667d9zRB-nn-17" value="Quản lý tài chính" style="ellipse;whiteSpace=wrap;html=1;" vertex="1" parent="1">
          <mxGeometry x="330" y="300" width="140" height="40" as="geometry" />
        </mxCell>
        <mxCell id="Jsi_0MGGv667d9zRB-nn-18" value="Quản lý kho" style="ellipse;whiteSpace=wrap;html=1;" vertex="1" parent="1">
          <mxGeometry x="330" y="360" width="140" height="40" as="geometry" />
        </mxCell>
        <mxCell id="Jsi_0MGGv667d9zRB-nn-19" value="Quảng bá sản phẩm" style="ellipse;whiteSpace=wrap;html=1;" vertex="1" parent="1">
          <mxGeometry x="330" y="420" width="140" height="40" as="geometry" />
        </mxCell>
        <mxCell id="Jsi_0MGGv667d9zRB-nn-20" value="Nhập sản phẩm" style="ellipse;whiteSpace=wrap;html=1;" vertex="1" parent="1">
          <mxGeometry x="940" y="300" width="140" height="40" as="geometry" />
        </mxCell>
        <mxCell id="Jsi_0MGGv667d9zRB-nn-21" value="Quản lý nhân sự" style="ellipse;whiteSpace=wrap;html=1;" vertex="1" parent="1">
          <mxGeometry x="940" y="350" width="140" height="40" as="geometry" />
        </mxCell>
        <mxCell id="Jsi_0MGGv667d9zRB-nn-29" style="edgeStyle=orthogonalEdgeStyle;rounded=0;orthogonalLoop=1;jettySize=auto;html=1;exitX=0;exitY=1;exitDx=0;exitDy=0;" edge="1" parent="1" source="Jsi_0MGGv667d9zRB-nn-13" target="Jsi_0MGGv667d9zRB-nn-13">
          <mxGeometry relative="1" as="geometry" />
        </mxCell>
      </root>
    </mxGraphModel>
  </diagram>
</mxfile>
